# xmcd
#
# Track frame offsets:
#	150
#	13452
#	35155
#	52038
#	69685
#	87066
#	108471
#	123015
#	141939
#	159098
#	177734
#	196282
#	210998
#	232922
#	249037
#	265925
#	280042
#	292387
#	310118
#	328914
#
# Disc length: 4588 seconds
#
# Revision: 0
# Processed by: cddbd v1.5PL3 Copyright (c) Steve Scherf et al.
# Submitted via: MusicManager 7.0.3.0 
#
DISCID=2811ea14
DTITLE=Various Artist - MPB Especial 2003
DYEAR=1900
DGENRE=misc
TTITLE0=Titãs - Epitáfio
TTITLE1=Fafá de Belém - Foi Assim
TTITLE2=Kid Abelha - Casinha de Sapê
TTITLE3=Orlando Morais - Na Paz
TTITLE4=Elis Regina - O Bêbado e a Equilibrista
TTITLE5=Sandra de Sá - Sozinha
TTITLE6=Marisa Monte - Amor I Love you
TTITLE7=Ivete Sangalo - Se Eu Não Te Amasse
TTITLE8=Zé Ramalho - Cidadão
TTITLE9=Milton Nascimento - Nos Bailes Da Vida
TTITLE10=Gilberto Gil - Super Homem
TTITLE11=Caetano Veloso - Qualquer Coisa
TTITLE12=Elba Ramalho - Chão de Giz
TTITLE13=Maria Bethânia - Onde Estará o Meu Amor
TTITLE14=Elba Ramalho e Geraldo Azevedo - Pedras e Moças
TTITLE15=Caetano Veloso - Samba de Verão
TTITLE16=Miúcha - Pela Luz dos Olhos Teus
TTITLE17=Jorge Vercílio - Que Nem Mara
TTITLE18=Tribalistas - Velha Infância
TTITLE19=Marília Gabriela - Você 
EXTD=
EXTT0=
EXTT1=
EXTT2=
EXTT3=
EXTT4=
EXTT5=
EXTT6=
EXTT7=
EXTT8=
EXTT9=
EXTT10=
EXTT11=
EXTT12=
EXTT13=
EXTT14=
EXTT15=
EXTT16=
EXTT17=
EXTT18=
EXTT19=
PLAYORDER=
